<?xml version="1.0" encoding="utf-8"?>
<svg version="1.1" id="Calque_1" xmlns="http://www.w3.org/2000/svg" xmlns:xlink="http://www.w3.org/1999/xlink" x="0px" y="0px"
	 viewBox="0 0 327 377" style="enable-background:new 0 0 327 377;" xml:space="preserve">
<style type="text/css">
	.st0{fill:#4C4F69;}
	.st1{fill:#8A8B9C;}
	.st2{fill:#BBBFCB;}
	.st3{fill:#ABAFBD;}
	.st4{fill:#E67ABA;}
	.st5{fill:#E779BD;}
	.st6{fill:#E779BE;}
	.st7{fill:#E679BB;}
	.st8{fill:#E67AB6;}
	.st9{fill:#E2809E;}
	.st10{fill:#E27FA1;}
	.st11{fill:#E1819B;}
	.st12{fill:#E47DAD;}
	.st13{fill:#E2809F;}
	.st14{fill:#E778C1;}
	.st15{fill:#E67AB8;}
	.st16{fill:#E37FA5;}
	.st17{fill:#E57BB5;}
	.st18{fill:#E57BB4;}
	.st19{fill:#E67AB9;}
	.st20{fill:#E57CB1;}
	.st21{fill:#E37EA8;}
	.st22{fill:#E08198;}
	.st23{fill:#E37EA6;}
	.st24{fill:#E778BF;}
	.st25{fill:#E08297;}
	.st26{fill:#E47CAF;}
	.st27{fill:#E877C3;}
	.st28{fill:#E47DAB;}
	.st29{fill:#E877C4;}
	.st30{fill:#E57BB2;}
	.st31{fill:#E778C0;}
	.st32{fill:#E08294;}
	.st33{fill:#E877C5;}
	.st34{fill:#E08293;}
</style>
<path class="st0" d="M326.91,135.01c0,6.66,0,13.33,0,19.99c-1.01,1.51-0.57,3.27-0.61,4.86c-0.26,12.1-5.38,22.54-11.11,32.73
	c-1.93,3.42-2.17,6.35-0.03,9.75c2.35,3.74,3.08,8.04,3.09,12.45c0.05,46.95,0.09,93.9-0.03,140.85
	c-0.02,8.48-3.73,12.73-10.26,12.34c-4.41-0.26-7.44-2.95-8.1-7.37c-0.42-2.8-0.29-5.65-0.29-8.48c-0.01-35.13,0-70.26-0.01-105.39
	c0-1.83,0.08-3.67-0.11-5.49c-0.29-2.8-1.86-3.88-4.48-2.9c-2.8,1.05-5.56,2.22-8.29,3.47c-3.18,1.46-4.27,3.78-3.76,7.26
	c1.92,13.12,1.55,26.18-1.27,39.17c-7.03,32.38-25.28,56.66-53.15,74.11c-14.45,9.04-30.01,14.11-47.14,14.05
	c-0.53,0-0.95,0.22-1.38,0.49c-7,0-13.99,0-20.99,0c-0.67-0.61-1.33-0.61-2,0c-1.33,0-2.67,0-4,0c-9.44-1.53-19.11-1.59-28.21-5.31
	c-42.04-17.17-66.95-47.96-73.76-92.93c-1.24-8.19-0.44-16.63-0.18-24.95c0.11-3.69-1.03-5.87-4.52-7.29
	c-9.4-3.82-18.52-8.4-28.04-11.84c-16.04-5.79-18.7-25.6-9.07-36.2c2.76-3.04,2.92-5.63,0.88-8.88
	c-6.34-10.12-9.26-21.25-9.52-33.12c-0.01-0.52-0.17-0.96-0.5-1.36c0-7.33,0-14.66,0-21.99c1.74-6.5,1.57-13.34,5-19.58
	c8.44-15.34,26.65-24.88,43.98-22.36c5.45,0.79,5.78,0.64,5.65-4.86c-0.47-19.47,2.84-38.09,12.29-55.33
	c6.01-10.96,13.83-20.23,24.85-26.64c5.41-3.15,11.45-2.85,17.18-4.17c4.66,0,9.33,0,13.99,0c17.26,0.63,28.57,10.71,37.73,23.99
	c2.12,3.08,3.26,3.35,5.46,0.06c5.78-8.65,12.91-15.88,22.43-20.6c4.91-2.43,10.28-2.13,15.35-3.46c5,0,9.99,0,14.99,0
	c20.08,1.46,31.69,14.49,40.8,30.45c8.87,15.52,12.39,32.54,12.5,50.33c0.01,1.67-0.02,3.33,0,5c0.09,5.58,0.68,6.07,6.13,5.31
	c7.77-1.09,15.29-0.24,22.41,3.16c15.92,7.6,25.06,19.81,25.6,37.83C326.45,133.13,326.15,134.17,326.91,135.01z"/>
<path class="st1" d="M157,376.89c0.67-1.02,1.33-0.83,2,0C158.33,376.89,157.67,376.89,157,376.89z"/>
<path class="st2" d="M163.26,276.99c-2.94,0.19-4.59-0.71-6.26-1.42c-43.64-18.5-87.28-37.03-130.92-55.55
	c-2.93-1.25-6.01-2.35-6.12-6.35c-0.11-4.17,2.86-5.49,6.02-6.96c43.72-20.38,87.43-40.8,131.09-61.32
	c3.47-1.63,6.44-1.79,9.93-0.12c43.06,20.63,86.15,41.18,129.25,61.72c2.84,1.35,5.44,2.92,5.39,6.45
	c-0.05,3.52-2.62,5.07-5.53,6.33c-43.2,18.69-86.39,37.41-129.59,56.11C165.17,276.47,163.72,276.83,163.26,276.99z"/>
<path class="st3" d="M166.82,362.9c-50.24-0.05-91.68-35.47-99.37-85.04c-1.05-6.76-0.62-13.61-0.49-20.44
	c0.07-3.8,1.09-4.47,4.69-2.93c25.82,11.09,51.82,21.76,77.54,33.1c9.1,4.01,17.17,3.9,26.25-0.18
	c28.06-12.61,56.4-24.57,84.64-36.79c6.36-2.75,6.16-2.74,6.94,3.95C273.7,312.46,226.72,363.07,166.82,362.9z"/>
<path class="st4" d="M219.99,19.99c13.06,4.65,20.1,14.85,24.93,27.08c0.55,15.51-8.27,25.55-19.73,34.17
	c-14.14,10.64-30.59,14.83-47.61,17.62c-3.25,0.53-5.59-0.26-6.38-3.77c-1.15-7.41-1.89-14.83-0.32-22.27
	c0.53,0.22,0.94,0.57,1.24,1.05c0.72,1.48,1.02,3.04,0.83,4.68c0.63,6.12,2.03,7.41,7.92,5.83c11.54-3.09,22.98-6.48,32.56-14.2
	c12.66-10.21,18.89-28.86,6.99-42.9C218.5,25,217.01,22.6,219.99,19.99z"/>
<path class="st5" d="M219.99,19.99c-0.25,2.52,0.72,4.52,2.55,6.2c7.54,6.93,7.98,24.94,2.46,33.93
	c-7.35,11.99-18.04,18.29-30.41,22.62c-5.56,1.95-11.16,4.14-17.28,4.45c-6.3,0.32-6.29,0.59-6.3-5.67c0-0.83,0.02-1.66,0.03-2.49
	c1.58-1.9,3.7-2.56,6.07-3.04c8.69-1.76,16.89-4.8,24.28-9.79c6.97-4.71,11.3-11.39,12.75-19.51c1.58-8.81-3.66-15.13-9.41-20.87
	c-1.7-1.7-3.62-3-2.82-5.79C207.93,17.28,213.96,17.28,219.99,19.99z"/>
<path class="st6" d="M121.33,18.98c4.35,0.43,8.15,2.09,11.34,5.1c-1.31,4.72-5.47,7.33-8.3,10.9c-5.07,6.41-3.78,16.47,1.33,22.6
	c6.92,8.29,16.2,10.92,25.67,13.77c1.94,0.59,3.75,1.28,5.03,2.95c0.21,2.33-0.01,4.67,0.11,7c0.18,3.58-1.53,4.5-4.93,4.35
	c-8.72-0.39-16.39-4-24.19-7.3c-10.91-4.61-18.37-12.74-23.43-23.19c-3.22-6.65-2.87-13.71-0.07-20.24
	c2.67-6.2,5.86-12.38,12.69-15.4C118.17,18.82,119.63,18.19,121.33,18.98z"/>
<path class="st7" d="M121.33,18.98c-7.96,2.68-15.82,15.53-16.71,23.46c-1.72,15.24,8.12,24.02,18.15,30.92
	c8.53,5.87,19.22,9.67,30.31,10.17c2,0.09,2.81-0.75,2.85-2.52c0.05-2.33-0.04-4.66-0.07-6.99c-0.2-0.47-0.13-0.88,0.27-1.21
	c1.27,6.09,1.14,12.17-0.02,18.25c-1.31,1.44-2.85,2.2-4.87,1.92c-17.77-2.44-34.69-7.59-47.69-20.39
	c-11.25-11.08-18.26-25.89-8.05-43.66c0.58-1.01,0.99-2.1,1.44-3.18C103.98,19.62,111.87,16.47,121.33,18.98z"/>
<path class="st8" d="M171.2,95.09c1.42,1.78,3.2,1.97,5.37,1.6c14.47-2.47,28.82-5.53,41.45-13.35
	c11.59-7.17,21.81-15.78,24.28-30.43c0.36-2.11,1.02-4.22,2.63-5.83c2.87,5.59,4.63,11.49,5.1,17.77c0.64,4.98-1.15,9.17-4.76,12.38
	c-10.2,9.08-21.03,17.32-34.04,22.01c-7.78,2.81-15.76,5.06-24.01,6.22c-4.69,0.66-9.26,3.1-14.06,0.54
	C172.51,102.36,171.85,98.72,171.2,95.09z"/>
<path class="st9" d="M243.72,166.13c-8.34-3.07-8.51-3.5-4.78-12.17c9.56-4.19,19.92-6.37,29.25-10.95
	c9.65-4.73,19.23-9.76,28.09-15.99c2.3-1.62,4.7-3.19,7.72-3.16c3.11,3.81,3.14,8.6,4.12,13.08c-2.11,4.9-7.12,6.21-11.12,8.52
	c-11.79,6.8-24.27,12.26-36.87,17.37C254.94,164.92,249.47,166.43,243.72,166.13z"/>
<path class="st10" d="M303.99,123.85c-0.95,3.21-4.2,3.61-6.48,5.09c-14.74,9.64-29.97,18.34-47.15,23.03
	c-2.54,0.69-4.92,1.98-7.37,3.02c-1.63,0.69-3.21,1.32-4.05-1.03c1.07-4.79,3.24-9.09,5.85-13.19c13.39-5.28,26.25-11.62,38.55-19.1
	c3.93-2.39,6.97-6.15,11.58-7.47C299.1,116.33,302.24,119.44,303.99,123.85z"/>
<path class="st11" d="M243.72,166.13c8.93-4.32,18.65-6.55,27.7-10.64c10.26-4.64,20.21-9.82,29.97-15.41
	c2.14-1.23,4.48-2.11,6.72-3.15c1.27,5.04,1.2,10.09-0.03,15.13c-6.51,5.89-14.57,9.06-22.39,12.58c-5.14,2.31-10.4,4.36-15.49,6.8
	c-3.63,1.74-7.47,2.76-11.56,1.67C253.34,171.48,248.59,168.69,243.72,166.13z"/>
<path class="st11" d="M85.4,163.16c-5.54,3.15-11.36,5.71-17.3,8.01c-9.92-1.64-18.68-6.46-27.86-10.13
	c-6.18-2.48-11.59-6.39-17.6-9.12c-2.79-1.27-4.24-2.91-4.38-5.85c-0.37-4.89-0.25-9.73,1.66-14.36c5.25,0.08,8.59,4.07,12.72,6.36
	c8.72,4.83,17.3,9.78,26.62,13.53c7.55,3.04,14.97,6.26,22.89,8.22C83.86,160.24,85.18,161.21,85.4,163.16z"/>
<path class="st10" d="M24.08,122.04c1.95-3.83,4.79-6.69,8.92-8.14c4.57-0.58,7.37,2.94,10.38,5.14
	c11.64,8.49,24.68,14.14,37.72,19.87c2.74,3.68,4.7,7.73,5.92,12.15c0.7,4.61-2.67,4.26-5.27,3.87c-4.26-0.65-8.23-2.44-12.26-3.99
	C56,145.72,43.5,138.59,31.26,131C27.99,128.97,23.29,127.56,24.08,122.04z"/>
<path class="st12" d="M145.71,125.02c-2.06,4.39-5.23,7.86-8.9,10.93c-6.79,1.7-13.15-0.96-19.54-2.26
	c-11.37-2.32-22.29-6.24-32.67-11.52c-3.16-5.69-5.62-11.64-6.56-18.14c2.16-2.59,4.61-1.47,6.7-0.18
	c11.4,7.06,24.06,11.03,36.7,14.96c4.7,1.46,9.78,1.5,14.69,2.14C139.66,121.42,143.58,121.18,145.71,125.02z"/>
<path class="st13" d="M24.08,122.04c3.1,4.62,8.21,6.53,12.62,9.39c13.54,8.76,28.08,15.45,43.3,20.67
	c2.37,0.81,5.13,2.24,7.02-1.05c0.68,1.68,1.32,3.38,2.06,5.04c1.74,3.93,0.73,6.37-3.68,7.07c-17.7-4.15-34.12-11.52-49.76-20.55
	c-5.47-3.16-11.65-5.6-15.71-10.91C20.06,127.95,21.72,124.84,24.08,122.04z"/>
<path class="st14" d="M156.11,72.82c-0.09,0.4-0.18,0.81-0.26,1.21c-9.28-1.05-18.62-2.93-25.86-8.84
	c-7.67-6.26-14.55-13.94-10.8-25.38c2.29-6.99,7.06-12.14,13.47-15.74c2.99,1.8,5.84,3.77,7.67,6.87c-1.06,3.73-4.61,5.96-5.62,9.86
	c-1.33,5.12-0.26,11.4,3.87,14.42c3.14,2.29,5.98,5.28,10.23,5.91c2.52,0.37,4.21,2.54,6.3,3.87
	C156.3,67.5,156.12,70.17,156.11,72.82z"/>
<path class="st12" d="M249.85,100.03c-0.43,4.58-1.6,8.95-3.65,13.08c-5.28,5.46-12.2,7.75-19.14,10.13
	c-11.33,3.89-22.92,6.57-34.75,8.37c-2.88,0.44-5.2-0.07-7.51-1.52c-2.2-1.94-3.57-4.43-4.63-7.12c0.6-3.11,3.32-3.34,5.62-4.14
	c4.43-1.54,9.16-1.25,13.72-2.24c15.36-3.35,29.76-9.11,43.65-16.32C245.27,99.18,247.53,97.36,249.85,100.03z"/>
<path class="st15" d="M155.79,95.08c-0.34,1.98-0.67,3.97-1.01,5.95c-2.82,3.01-6.34,2.47-9.77,1.71
	c-12.45-2.79-25.03-5.51-36.25-11.76c-12.28-6.84-23.02-15.64-29.07-28.9c-0.87-1.9-1.76-3.99-0.71-6.2
	c0.7-5.47,2.96-10.32,5.99-14.85c3.19-0.24,3.12,2.35,3.53,4.29c1.1,5.14,1.28,10.44,4.28,15.16c5.81,9.15,13.25,16.24,22.79,21.58
	c11.24,6.29,23.36,9.08,35.84,10.9C153.21,93.22,154.46,94.11,155.79,95.08z"/>
<path class="st16" d="M294.92,114.19c-3.3,5.45-8.65,8.35-13.9,11.47c-9.82,5.84-19.75,11.43-30.65,15.02
	c-1.81,0.6-3.7,1.84-5.58,0.07c6.59-12.53,15.8-22.34,29.19-27.63C281.06,110.33,288.13,110.26,294.92,114.19z"/>
<path class="st17" d="M78.98,55.88c4.89,10.76,11.88,19.63,21.42,26.9c13.99,10.65,30.52,14.01,46.91,17.97
	c2.37,0.57,4.97,0.21,7.47,0.29c0.3,2.26-1.66,3.86-1.75,6c-1.56,1.84-3.48,2.11-5.84,1.82c-18.08-2.21-35.15-7.57-50.64-17.15
	c-8.36-5.17-15.83-11.62-20.49-20.65C76.03,65.8,77.03,60.75,78.98,55.88z"/>
<path class="st18" d="M173.16,105.99c11.25-2.67,22.83-3.95,33.78-7.89c10.99-3.95,21.44-8.95,29.93-17.21
	c3.86-3.76,9.13-6.08,11.42-11.51c0.63-1.5,1.68-2.82,1.74-4.55c1.14,2.23,1.08,4.62,0.99,7.02c0.91,2.46,0.24,5.01,0.42,7.51
	c-1.56,3.29-3.31,6.47-6.3,8.7c-19.21,14.35-40.85,22.31-64.67,24.61c-2.2,0.21-3.9-0.15-5.41-1.65
	C174.42,109.35,173.79,107.67,173.16,105.99z"/>
<path class="st19" d="M155.79,95.08c-4.53,1.18-8.86-0.73-13.18-1.3c-15.57-2.07-29.53-8.32-41.22-18.95
	c-8.54-7.76-14.83-16.91-15.19-29.07c-0.05-1.62-0.08-3.35-1.24-4.73c2.63-6.15,6.62-11.23,11.95-15.26
	c0.35,3.11-0.97,5.86-1.85,8.7c-3.36,10.81-2.13,20.67,4.86,30.02c10.95,14.66,26.27,21.15,43.41,24.56
	c4.21,0.84,8.33,2.42,12.75,2.03C155.99,92.4,155.89,93.74,155.79,95.08z"/>
<path class="st20" d="M250.93,80.05c0.03-2.73,0.05-5.46,0.08-8.19c1.73,9.48,0.98,18.85-1.16,28.17
	c-7.34,3.36-14.61,6.9-22.05,10.04c-11.74,4.97-23.77,8.88-36.59,10.13c-3.74,0.37-7.37,1.82-11.04,2.77
	c-1.62-2.06-2.67-4.38-3.24-6.94c0.9-2.72,3.23-3.03,5.58-3.33c17.08-2.17,33.33-7.02,48.55-15.15c4.08-2.18,7.97-4.71,12.05-6.91
	C247.37,88.35,248.66,83.84,250.93,80.05z"/>
<path class="st21" d="M84.6,122.17c3.89-0.36,7.53,0.62,11.05,2.17c11.41,5.02,23.47,7.67,35.71,9.61c2.03,0.32,3.85,0.75,5.46,2.01
	c-11.06,12.6-29.8,12.44-42.75-0.45C90.16,131.62,86.92,127.2,84.6,122.17z"/>
<path class="st22" d="M18.26,146.06c0.93,2.95,3.95,2.59,5.97,3.83c12.78,7.85,26.64,13.29,40.6,18.53
	c1.43,0.54,2.83,1.06,3.27,2.75c-3.78,2.49-7.95,4.15-12.12,5.79c-1.72,1.07-3.56,0.64-5.23,0.12
	c-10.54-3.24-21.07-6.52-29.55-14.09C19.12,157.54,18.18,151.89,18.26,146.06z"/>
<path class="st18" d="M76.06,71.05c1.95,0.3,3.3,1.58,4.42,3.01c11.07,14.16,26.37,21.71,42.89,27.17c9.6,3.18,19.59,4.8,29.66,5.8
	c0.18,1.95-0.48,3.62-1.67,5.12c-4.08,2.74-8.31,1.02-12.49,0.39c-17.17-2.61-33.51-7.8-48.1-17.31
	c-5.51-3.59-12.34-6.06-15.2-12.94c0.19-3.48-0.5-6.99,0.42-10.44C75.88,71.57,75.9,71.3,76.06,71.05z"/>
<path class="st23" d="M81.1,138.9c-1.61,1.33-3.42,1.28-5.15,0.46c-11.36-5.4-22.98-10.26-33.19-17.88c-3.31-2.47-6.7-4.8-9.76-7.58
	c7.32-4.42,14.75-3.15,21.94,0.04C66.59,119.11,75.03,127.81,81.1,138.9z"/>
<path class="st24" d="M201.91,20.03c3.45,3.77,7.62,6.75,10.6,11.11c6.16,9.04,5.23,17.76-0.01,26.6
	c-3.66,6.18-8.82,10.72-15.35,13.72c-8.33,3.83-16.83,7.05-26.12,7.57c0.04-1.67,0.08-3.33,0.12-5c1.23-1.87,3.24-2.1,5.19-2.54
	c9.01-2.04,17.12-5.69,24.02-12.15c6.43-6.02,8.25-15.32,3.73-22.92c-1.94-3.26-3.55-6.74-6.89-8.99c-1.51-1.01-1.79-2.71-1.4-4.48
	C197.69,21.7,199.54,20.33,201.91,20.03z"/>
<path class="st25" d="M258.63,173.11c14.38-5.34,28.53-11.23,42.01-18.62c2.36-1.3,4.71-2.38,7.44-2.43
	c-0.13,4.86-1.24,9.5-3.2,13.94c-9.02,8.37-20.06,12.16-31.94,14.02C267.98,178.1,263.1,176.04,258.63,173.11z"/>
<path class="st26" d="M145.71,125.02c-14.55-2.12-29.17-3.87-42.85-9.85c-6.07-2.65-12.4-4.72-17.93-8.51
	c-2.05-1.41-4.28-2.59-6.89-2.62c-1.37-3.54-2-7.21-1.96-10.99c2.26-2,4.09-0.47,5.7,0.91c8.47,7.25,18.68,11.39,28.88,15.07
	c10.8,3.9,22.01,6.87,33.63,7.58c1.82,0.11,3.69,0.43,4.58,2.43C147.82,121.02,146.76,123.02,145.71,125.02z"/>
<path class="st27" d="M171.08,70.05c-0.43-3.57,0.59-6.87,1.85-10.13c6.55-1.74,13.21-3.2,15.72-10.91
	c1.27-3.91,1.23-7.45-1.43-10.69c-1.29-1.57-2.26-3.22-2.38-5.29c2.02-2.73,4.03-5.47,7.05-7.22c9.09,1.86,15.86,16.7,12.28,25.34
	c-5.47,13.19-16.72,17.44-29.11,20.37C173.44,71.88,172.15,71.24,171.08,70.05z"/>
<path class="st28" d="M184.79,130.09c19.68-2.39,38.9-6.44,56.66-15.73c1.51-0.79,3.04-1.32,4.75-1.25
	c-1.2,4.73-3.25,9.04-6.24,12.91c-8.81,6.31-19.26,7.92-29.45,10.15c-4.04,0.88-8.11,1.8-12.26,2.16c-2.51,0.21-4.99,0.12-7.2-1.34
	C188.37,135.24,186.3,132.91,184.79,130.09z"/>
<path class="st29" d="M155.12,65.01c-9.91-1.48-18.53-4.93-22.7-15.05c-2.94-7.13,0.71-15.81,7.91-19.01
	c7.58,8.74,12.23,18.81,13.79,30.3C154.3,62.53,154.78,63.76,155.12,65.01z"/>
<path class="st21" d="M191.06,136.99c14.3-2.11,28.58-4.31,42.13-9.67c2.22-0.88,4.41-1.41,6.78-1.3
	C229.18,146.41,206.49,151.5,191.06,136.99z"/>
<path class="st30" d="M250.93,80.05c1.57,6.3-1.94,10.05-6.8,12.82c-8.78,4.99-17.71,9.62-27.06,13.61
	c-12.94,5.51-26.64,6.89-40.14,9.57c-1.09-1.5-1.8-3.14-1.89-5.01c20.02-1.94,39.27-6.5,56.74-16.95
	C238.6,90,244.74,84.98,250.93,80.05z"/>
<path class="st31" d="M171.08,70.05c7.31-1.09,14.6-3.19,20.56-7.17c10.96-7.32,16.47-20.06,4.77-31.92
	c-1.6-1.62-3.9-2.68-4.52-5.16c1.01-1.35,2.28-2.33,3.9-2.83c4.03,3.4,7.59,7.02,10.24,11.81c5.22,9.45,3.29,19.63-4.95,27.04
	c-8.63,7.75-18.42,11.91-29.93,12.22c-0.09-0.41-0.18-0.82-0.27-1.23C170.95,71.89,171.01,70.97,171.08,70.05z"/>
<path class="st32" d="M21.2,163c4.87,0.2,8.41,3.62,12.7,5.26c7.39,2.83,14.72,5.8,22.08,8.71c-6.69,3.2-13.42,6.34-20.06,9.64
	c-2.05,1.02-3.33,0.67-4.51-1.23C27.05,178.35,22.97,171.2,21.2,163z"/>
<path class="st33" d="M184.84,33.02c4.38,2.87,7.66,6.55,7.04,12.14c-0.66,6-2.83,11.29-8.94,13.9c-1.98,0.84-3.98,1.65-5.99,2.42
	c-1.77,0.68-3.28,0.51-4.01-1.56C174.68,49.96,178.75,41.04,184.84,33.02z"/>
<path class="st34" d="M272.93,180.02c3.33-4.06,8.7-3.58,12.92-5.77c6.11-3.18,12.66-5.54,19.02-8.25c-2,7.79-6.05,14.55-10.55,21.1
	c-1.22,1.78-2.58,2.31-4.6,1.28C284.15,185.54,278.53,182.8,272.93,180.02z"/>
<path class="st20" d="M76.06,83.04c3.2,2.01,6.63,3.74,9.58,6.08c15.83,12.57,34.31,18.49,53.84,21.82
	c3.91,0.67,7.91,0.82,11.88,1.21c0.02,1.47-0.55,2.72-1.45,3.85c-3.51,1.93-7.16,0.57-10.62,0.13
	c-14.64-1.88-28.51-6.71-41.97-12.47c-7.12-3.05-13.46-7.78-19.61-12.56C74.97,88.98,75.01,86.05,76.06,83.04z"/>
<path class="st20" d="M76.06,83.04c-0.63,3.8,1.27,5.83,4.31,8.04c18.2,13.22,38.76,20.17,60.71,23.7c2.94,0.47,6.04-0.28,8.83,1.22
	c0.18,1.19-0.36,2.13-1.04,3.02c-18.32-1.41-35.69-6.74-52.47-13.78c-5.36-2.25-10.71-5.3-15.12-9.45c-1.49-1.4-3.17-2.39-5.2-2.75
	c-1.3-7.05-1.59-14.11-0.1-21.18C76.01,75.58,76.04,79.31,76.06,83.04z"/>
</svg>
