<svg width="640" height="320" viewBox="0 0 640 320" fill="none" xmlns="http://www.w3.org/2000/svg">
<g clip-path="url(#clip0_368_6499)">
<rect width="640" height="320" fill="#16301F"/>
<rect width="640" height="320" fill="#16301F"/>
<rect width="640" height="320" fill="url(#paint0_radial_368_6499)" fill-opacity="0.2"/>
<rect width="640" height="320" fill="url(#paint1_radial_368_6499)" fill-opacity="0.2"/>
<path d="M66.18 238H59.932L57.732 231.62H48.536L46.292 238H40.352L49.856 211.864H56.676L66.18 238ZM56.236 227L54.124 221.06C53.9187 220.473 53.7427 219.931 53.596 219.432C53.4787 218.904 53.3613 218.376 53.244 217.848H53.024C52.9067 218.376 52.7747 218.904 52.628 219.432C52.5107 219.931 52.3493 220.473 52.144 221.06L49.988 227H56.236ZM95.8683 228.1C95.8683 230.065 95.443 231.825 94.5923 233.38C93.771 234.935 92.627 236.167 91.1603 237.076C89.723 237.956 88.051 238.396 86.1443 238.396C84.5016 238.396 83.167 238.132 82.1403 237.604V246.14H76.5083V218.772L82.1403 218.508V219.916C82.815 219.359 83.563 218.948 84.3843 218.684C85.2056 218.391 86.1443 218.244 87.2003 218.244C88.8136 218.244 90.2656 218.64 91.5563 219.432C92.8763 220.224 93.9176 221.353 94.6803 222.82C95.4723 224.287 95.8683 226.047 95.8683 228.1ZM90.0603 228.276C90.0603 227.22 89.8843 226.311 89.5323 225.548C89.1803 224.756 88.6523 224.155 87.9483 223.744C87.2736 223.304 86.423 223.084 85.3963 223.084C84.135 223.084 83.0496 223.421 82.1403 224.096V233.028C82.5216 233.175 82.9616 233.307 83.4603 233.424C83.9883 233.512 84.531 233.556 85.0883 233.556C86.115 233.556 86.995 233.351 87.7283 232.94C88.4616 232.5 89.0336 231.884 89.4443 231.092C89.855 230.271 90.0603 229.332 90.0603 228.276ZM116.54 218.508V238H110.908V236.372C109.999 237.076 109.075 237.589 108.136 237.912C107.197 238.235 106.185 238.396 105.1 238.396C103.105 238.396 101.492 237.839 100.26 236.724C99.0281 235.58 98.4121 233.805 98.4121 231.4V218.772L104.044 218.508V230.212C104.044 231.356 104.323 232.177 104.88 232.676C105.437 233.175 106.2 233.424 107.168 233.424C107.813 233.424 108.459 233.321 109.104 233.116C109.749 232.881 110.351 232.588 110.908 232.236V218.772L116.54 218.508ZM132.593 218.464L132.373 223.876C132.197 223.788 131.889 223.7 131.449 223.612C131.038 223.524 130.642 223.48 130.261 223.48C129.469 223.48 128.692 223.627 127.929 223.92C127.196 224.184 126.521 224.551 125.905 225.02V238H120.273V218.772L125.905 218.508V220.796C126.756 219.916 127.621 219.271 128.501 218.86C129.41 218.449 130.349 218.244 131.317 218.244C131.522 218.244 131.742 218.259 131.977 218.288C132.241 218.317 132.446 218.376 132.593 218.464ZM147.063 218.464L146.843 223.876C146.667 223.788 146.359 223.7 145.919 223.612C145.508 223.524 145.112 223.48 144.731 223.48C143.939 223.48 143.162 223.627 142.399 223.92C141.666 224.184 140.991 224.551 140.375 225.02V238H134.743V218.772L140.375 218.508V220.796C141.226 219.916 142.091 219.271 142.971 218.86C143.88 218.449 144.819 218.244 145.787 218.244C145.992 218.244 146.212 218.259 146.447 218.288C146.711 218.317 146.916 218.376 147.063 218.464ZM161.137 210.412L160.917 215.252C160.712 215.164 160.433 215.105 160.081 215.076C159.758 215.047 159.45 215.032 159.157 215.032C158.101 215.032 157.294 215.267 156.737 215.736C156.18 216.205 155.901 216.983 155.901 218.068V218.64H160.697L160.301 223.48H155.901V238H150.269V223.48H147.629V218.64H150.269V217.98C150.269 215.399 151.017 213.448 152.513 212.128C154.009 210.779 156.018 210.104 158.541 210.104C158.952 210.104 159.406 210.133 159.905 210.192C160.404 210.251 160.814 210.324 161.137 210.412ZM180.027 229.684H167.619C167.795 230.476 168.147 231.165 168.675 231.752C169.232 232.309 169.936 232.735 170.787 233.028C171.667 233.321 172.694 233.468 173.867 233.468C174.864 233.468 175.935 233.336 177.079 233.072C178.223 232.779 179.162 232.412 179.895 231.972L180.115 236.768C179.352 237.296 178.326 237.707 177.035 238C175.774 238.264 174.586 238.396 173.471 238.396C170.978 238.396 168.836 237.985 167.047 237.164C165.287 236.313 163.952 235.125 163.043 233.6C162.163 232.075 161.723 230.285 161.723 228.232C161.723 226.208 162.134 224.463 162.955 222.996C163.806 221.5 164.964 220.341 166.431 219.52C167.927 218.669 169.599 218.244 171.447 218.244C173.148 218.244 174.659 218.581 175.979 219.256C177.328 219.931 178.37 220.913 179.103 222.204C179.866 223.465 180.247 224.991 180.247 226.78C180.247 227.161 180.218 227.631 180.159 228.188C180.13 228.716 180.086 229.215 180.027 229.684ZM171.491 222.292C170.347 222.292 169.408 222.673 168.675 223.436C167.971 224.199 167.546 225.211 167.399 226.472H175.011C175.011 226.413 175.011 226.325 175.011 226.208C175.011 226.061 175.011 225.959 175.011 225.9C175.011 224.815 174.688 223.949 174.043 223.304C173.427 222.629 172.576 222.292 171.491 222.292ZM198.583 219.96L197.351 225.064C196.852 224.565 196.192 224.155 195.371 223.832C194.55 223.509 193.699 223.348 192.819 223.348C191.851 223.348 190.971 223.553 190.179 223.964C189.416 224.345 188.815 224.903 188.375 225.636C187.964 226.369 187.759 227.249 187.759 228.276C187.759 229.332 187.979 230.241 188.419 231.004C188.859 231.767 189.49 232.339 190.311 232.72C191.162 233.101 192.144 233.292 193.259 233.292C194.256 233.292 195.195 233.145 196.075 232.852C196.984 232.559 197.791 232.177 198.495 231.708L198.715 236.724C197.894 237.223 196.955 237.633 195.899 237.956C194.843 238.249 193.655 238.396 192.335 238.396C190.487 238.396 188.771 238 187.187 237.208C185.603 236.416 184.327 235.272 183.359 233.776C182.42 232.251 181.951 230.417 181.951 228.276C181.951 226.34 182.406 224.624 183.315 223.128C184.224 221.603 185.456 220.415 187.011 219.564C188.566 218.684 190.296 218.244 192.203 218.244C193.611 218.244 194.843 218.405 195.899 218.728C196.984 219.021 197.879 219.432 198.583 219.96ZM213.404 218.64L213.008 223.48H207.86V230.828C207.86 231.796 208.095 232.485 208.564 232.896C209.034 233.277 209.723 233.468 210.632 233.468C211.131 233.468 211.6 233.395 212.04 233.248C212.51 233.072 212.906 232.867 213.228 232.632L213.448 237.384C212.422 238.059 211.028 238.396 209.268 238.396C206.834 238.396 205.059 237.795 203.944 236.592C202.83 235.389 202.272 233.673 202.272 231.444V223.48H199.632V218.64H202.272V214.592L207.86 213.404V218.64H213.404ZM248.512 238H242.264L240.064 231.62H230.868L228.624 238H222.684L232.188 211.864H239.008L248.512 238ZM238.568 227L236.456 221.06C236.251 220.473 236.075 219.931 235.928 219.432C235.811 218.904 235.693 218.376 235.576 217.848H235.356C235.239 218.376 235.107 218.904 234.96 219.432C234.843 219.931 234.681 220.473 234.476 221.06L232.32 227H238.568ZM270.8 220.84C270.8 222.776 270.36 224.419 269.48 225.768C268.629 227.117 267.382 228.129 265.74 228.804C264.097 229.479 262.117 229.816 259.8 229.816H256.72V238H250.868V211.864H259.844C262.161 211.864 264.126 212.216 265.74 212.92C267.382 213.624 268.629 214.636 269.48 215.956C270.36 217.276 270.8 218.904 270.8 220.84ZM264.948 220.84C264.948 219.872 264.728 219.08 264.288 218.464C263.877 217.848 263.276 217.393 262.484 217.1C261.721 216.807 260.797 216.66 259.712 216.66H256.72V225.02H259.712C260.797 225.02 261.721 224.873 262.484 224.58C263.276 224.287 263.877 223.832 264.288 223.216C264.728 222.6 264.948 221.808 264.948 220.84ZM279.826 211.864V238H273.974V211.864H279.826ZM322.388 218.64L316.668 238H310.684L308.396 231.18C307.986 229.772 307.648 228.643 307.384 227.792C307.12 226.912 306.9 226.105 306.724 225.372H306.504C306.358 226.105 306.138 226.912 305.844 227.792C305.58 228.643 305.243 229.772 304.832 231.18L302.544 238H296.56L290.84 218.772L296.516 218.508L299.112 227.748C299.259 228.364 299.406 229.097 299.552 229.948C299.728 230.769 299.86 231.532 299.948 232.236H300.168C300.256 231.532 300.403 230.769 300.608 229.948C300.814 229.097 301.004 228.364 301.18 227.748L303.732 220.092H309.716L312.268 227.748C312.444 228.364 312.635 229.097 312.84 229.948C313.046 230.769 313.192 231.532 313.28 232.236H313.5C313.588 231.532 313.706 230.769 313.852 229.948C314.028 229.097 314.19 228.364 314.336 227.748L316.844 218.64H322.388ZM336.914 218.464L336.694 223.876C336.518 223.788 336.21 223.7 335.77 223.612C335.36 223.524 334.964 223.48 334.582 223.48C333.79 223.48 333.013 223.627 332.25 223.92C331.517 224.184 330.842 224.551 330.226 225.02V238H324.594V218.772L330.226 218.508V220.796C331.077 219.916 331.942 219.271 332.822 218.86C333.732 218.449 334.67 218.244 335.638 218.244C335.844 218.244 336.064 218.259 336.298 218.288C336.562 218.317 336.768 218.376 336.914 218.464ZM355.697 238H350.373V236.504C349.669 237.061 348.818 237.516 347.821 237.868C346.823 238.22 345.723 238.396 344.521 238.396C342.379 238.396 340.737 237.883 339.593 236.856C338.478 235.829 337.921 234.407 337.921 232.588C337.921 230.623 338.61 229.141 339.989 228.144C341.367 227.117 343.23 226.604 345.577 226.604C346.427 226.604 347.278 226.677 348.129 226.824C348.979 226.971 349.669 227.161 350.197 227.396V226.34C350.197 225.196 349.83 224.389 349.097 223.92C348.393 223.421 347.278 223.172 345.753 223.172C344.667 223.172 343.553 223.304 342.409 223.568C341.294 223.832 340.399 224.169 339.725 224.58L339.505 219.652C340.414 219.212 341.485 218.875 342.717 218.64C343.978 218.376 345.269 218.244 346.589 218.244C349.522 218.244 351.766 218.875 353.321 220.136C354.905 221.368 355.697 223.319 355.697 225.988V238ZM350.197 233.512V230.74C349.786 230.535 349.273 230.373 348.657 230.256C348.07 230.139 347.498 230.08 346.941 230.08C345.826 230.08 344.975 230.285 344.389 230.696C343.802 231.077 343.509 231.679 343.509 232.5C343.509 233.263 343.758 233.82 344.257 234.172C344.755 234.495 345.489 234.656 346.457 234.656C347.131 234.656 347.821 234.553 348.525 234.348C349.229 234.113 349.786 233.835 350.197 233.512ZM378.738 228.1C378.738 230.065 378.313 231.825 377.462 233.38C376.641 234.935 375.497 236.167 374.03 237.076C372.593 237.956 370.921 238.396 369.014 238.396C367.372 238.396 366.037 238.132 365.01 237.604V246.14H359.378V218.772L365.01 218.508V219.916C365.685 219.359 366.433 218.948 367.254 218.684C368.076 218.391 369.014 218.244 370.07 218.244C371.684 218.244 373.136 218.64 374.426 219.432C375.746 220.224 376.788 221.353 377.55 222.82C378.342 224.287 378.738 226.047 378.738 228.1ZM372.93 228.276C372.93 227.22 372.754 226.311 372.402 225.548C372.05 224.756 371.522 224.155 370.818 223.744C370.144 223.304 369.293 223.084 368.266 223.084C367.005 223.084 365.92 223.421 365.01 224.096V233.028C365.392 233.175 365.832 233.307 366.33 233.424C366.858 233.512 367.401 233.556 367.958 233.556C368.985 233.556 369.865 233.351 370.598 232.94C371.332 232.5 371.904 231.884 372.314 231.092C372.725 230.271 372.93 229.332 372.93 228.276ZM400.642 228.1C400.642 230.065 400.217 231.825 399.366 233.38C398.545 234.935 397.401 236.167 395.934 237.076C394.497 237.956 392.825 238.396 390.918 238.396C389.276 238.396 387.941 238.132 386.914 237.604V246.14H381.282V218.772L386.914 218.508V219.916C387.589 219.359 388.337 218.948 389.158 218.684C389.98 218.391 390.918 218.244 391.974 218.244C393.588 218.244 395.04 218.64 396.33 219.432C397.65 220.224 398.692 221.353 399.454 222.82C400.246 224.287 400.642 226.047 400.642 228.1ZM394.834 228.276C394.834 227.22 394.658 226.311 394.306 225.548C393.954 224.756 393.426 224.155 392.722 223.744C392.048 223.304 391.197 223.084 390.17 223.084C388.909 223.084 387.824 223.421 386.914 224.096V233.028C387.296 233.175 387.736 233.307 388.234 233.424C388.762 233.512 389.305 233.556 389.862 233.556C390.889 233.556 391.769 233.351 392.502 232.94C393.236 232.5 393.808 231.884 394.218 231.092C394.629 230.271 394.834 229.332 394.834 228.276ZM420.346 229.684H407.938C408.114 230.476 408.466 231.165 408.994 231.752C409.551 232.309 410.255 232.735 411.106 233.028C411.986 233.321 413.013 233.468 414.186 233.468C415.183 233.468 416.254 233.336 417.398 233.072C418.542 232.779 419.481 232.412 420.214 231.972L420.434 236.768C419.671 237.296 418.645 237.707 417.354 238C416.093 238.264 414.905 238.396 413.79 238.396C411.297 238.396 409.155 237.985 407.366 237.164C405.606 236.313 404.271 235.125 403.362 233.6C402.482 232.075 402.042 230.285 402.042 228.232C402.042 226.208 402.453 224.463 403.274 222.996C404.125 221.5 405.283 220.341 406.75 219.52C408.246 218.669 409.918 218.244 411.766 218.244C413.467 218.244 414.978 218.581 416.298 219.256C417.647 219.931 418.689 220.913 419.422 222.204C420.185 223.465 420.566 224.991 420.566 226.78C420.566 227.161 420.537 227.631 420.478 228.188C420.449 228.716 420.405 229.215 420.346 229.684ZM411.81 222.292C410.666 222.292 409.727 222.673 408.994 223.436C408.29 224.199 407.865 225.211 407.718 226.472H415.33C415.33 226.413 415.33 226.325 415.33 226.208C415.33 226.061 415.33 225.959 415.33 225.9C415.33 224.815 415.007 223.949 414.362 223.304C413.746 222.629 412.895 222.292 411.81 222.292ZM435.734 218.464L435.514 223.876C435.338 223.788 435.03 223.7 434.59 223.612C434.179 223.524 433.783 223.48 433.402 223.48C432.61 223.48 431.833 223.627 431.07 223.92C430.337 224.184 429.662 224.551 429.046 225.02V238H423.414V218.772L429.046 218.508V220.796C429.897 219.916 430.762 219.271 431.642 218.86C432.551 218.449 433.49 218.244 434.458 218.244C434.663 218.244 434.883 218.259 435.118 218.288C435.382 218.317 435.587 218.376 435.734 218.464ZM53.992 247.412L53.772 252.252C53.5667 252.164 53.288 252.105 52.936 252.076C52.6133 252.047 52.3053 252.032 52.012 252.032C50.956 252.032 50.1493 252.267 49.592 252.736C49.0347 253.205 48.756 253.983 48.756 255.068V255.64H53.552L53.156 260.48H48.756V275H43.124V260.48H40.484V255.64H43.124V254.98C43.124 252.399 43.872 250.448 45.368 249.128C46.864 247.779 48.8733 247.104 51.396 247.104C51.8067 247.104 52.2613 247.133 52.76 247.192C53.2587 247.251 53.6693 247.324 53.992 247.412ZM75.4788 265.32C75.4788 267.256 75.0241 268.987 74.1148 270.512C73.2348 272.037 72.0028 273.24 70.4188 274.12C68.8348 274.971 67.0308 275.396 65.0068 275.396C62.9828 275.396 61.1788 274.971 59.5948 274.12C58.0108 273.24 56.7641 272.037 55.8548 270.512C54.9748 268.987 54.5348 267.256 54.5348 265.32C54.5348 263.355 54.9748 261.624 55.8548 260.128C56.7641 258.603 58.0108 257.415 59.5948 256.564C61.1788 255.684 62.9828 255.244 65.0068 255.244C67.0308 255.244 68.8348 255.684 70.4188 256.564C72.0028 257.415 73.2348 258.603 74.1148 260.128C75.0241 261.624 75.4788 263.355 75.4788 265.32ZM69.6708 265.32C69.6708 264.293 69.4654 263.399 69.0548 262.636C68.6441 261.844 68.0868 261.243 67.3828 260.832C66.6788 260.392 65.8868 260.172 65.0068 260.172C64.1268 260.172 63.3348 260.392 62.6308 260.832C61.9268 261.243 61.3694 261.844 60.9588 262.636C60.5481 263.399 60.3428 264.293 60.3428 265.32C60.3428 266.347 60.5481 267.256 60.9588 268.048C61.3694 268.811 61.9268 269.412 62.6308 269.852C63.3641 270.263 64.1561 270.468 65.0068 270.468C65.9161 270.468 66.7228 270.263 67.4268 269.852C68.1308 269.412 68.6734 268.811 69.0548 268.048C69.4654 267.256 69.6708 266.347 69.6708 265.32ZM90.3322 255.464L90.1122 260.876C89.9362 260.788 89.6282 260.7 89.1882 260.612C88.7776 260.524 88.3816 260.48 88.0002 260.48C87.2082 260.48 86.4309 260.627 85.6682 260.92C84.9349 261.184 84.2602 261.551 83.6442 262.02V275H78.0122V255.772L83.6442 255.508V257.796C84.4949 256.916 85.3602 256.271 86.2402 255.86C87.1496 255.449 88.0882 255.244 89.0562 255.244C89.2616 255.244 89.4816 255.259 89.7162 255.288C89.9802 255.317 90.1856 255.376 90.3322 255.464Z" fill="white"/>
<path d="M121.179 257.84C121.179 259.776 120.739 261.419 119.859 262.768C119.008 264.117 117.762 265.129 116.119 265.804C114.476 266.479 112.496 266.816 110.179 266.816H107.099V275H101.247V248.864H110.223C112.54 248.864 114.506 249.216 116.119 249.92C117.762 250.624 119.008 251.636 119.859 252.956C120.739 254.276 121.179 255.904 121.179 257.84ZM115.327 257.84C115.327 256.872 115.107 256.08 114.667 255.464C114.256 254.848 113.655 254.393 112.863 254.1C112.1 253.807 111.176 253.66 110.091 253.66H107.099V262.02H110.091C111.176 262.02 112.1 261.873 112.863 261.58C113.655 261.287 114.256 260.832 114.667 260.216C115.107 259.6 115.327 258.808 115.327 257.84ZM144.242 257.664C144.242 259.395 143.758 260.891 142.79 262.152C141.851 263.384 140.663 264.249 139.226 264.748L146.09 275H139.314L133.506 266.2H130.206V275H124.354V248.864H133.418C135.706 248.864 137.657 249.216 139.27 249.92C140.883 250.595 142.115 251.592 142.966 252.912C143.817 254.203 144.242 255.787 144.242 257.664ZM138.346 257.664C138.346 256.755 138.126 256.007 137.686 255.42C137.275 254.804 136.689 254.364 135.926 254.1C135.193 253.807 134.298 253.66 133.242 253.66H130.206V261.624H133.242C134.298 261.624 135.193 261.492 135.926 261.228C136.689 260.935 137.275 260.495 137.686 259.908C138.126 259.321 138.346 258.573 138.346 257.664ZM160.597 248.468C163.266 248.468 165.628 249.055 167.681 250.228C169.734 251.401 171.348 253 172.521 255.024C173.694 257.019 174.281 259.321 174.281 261.932C174.281 264.513 173.694 266.816 172.521 268.84C171.348 270.864 169.734 272.463 167.681 273.636C165.628 274.809 163.266 275.396 160.597 275.396C157.957 275.396 155.61 274.809 153.557 273.636C151.504 272.463 149.876 270.864 148.673 268.84C147.5 266.816 146.913 264.513 146.913 261.932C146.913 259.321 147.5 257.019 148.673 255.024C149.876 253 151.504 251.401 153.557 250.228C155.61 249.055 157.957 248.468 160.597 248.468ZM160.597 270.16C162.093 270.16 163.413 269.808 164.557 269.104C165.701 268.4 166.596 267.432 167.241 266.2C167.886 264.939 168.209 263.516 168.209 261.932C168.209 260.348 167.886 258.94 167.241 257.708C166.596 256.476 165.701 255.508 164.557 254.804C163.413 254.071 162.093 253.704 160.597 253.704C159.13 253.704 157.81 254.056 156.637 254.76C155.493 255.464 154.598 256.432 153.953 257.664C153.308 258.896 152.985 260.319 152.985 261.932C152.985 263.487 153.308 264.895 153.953 266.156C154.598 267.388 155.493 268.371 156.637 269.104C157.81 269.808 159.13 270.16 160.597 270.16ZM200.191 248.864V275H195.175L185.231 261.052C184.849 260.524 184.483 259.996 184.131 259.468C183.808 258.911 183.515 258.383 183.251 257.884H183.031V275H177.443V248.864H183.119L192.403 261.932C192.784 262.431 193.136 262.959 193.459 263.516C193.811 264.044 194.119 264.557 194.383 265.056H194.603V248.864H200.191ZM216.994 248.468C219.664 248.468 222.025 249.055 224.078 250.228C226.132 251.401 227.745 253 228.918 255.024C230.092 257.019 230.678 259.321 230.678 261.932C230.678 264.513 230.092 266.816 228.918 268.84C227.745 270.864 226.132 272.463 224.078 273.636C222.025 274.809 219.664 275.396 216.994 275.396C214.354 275.396 212.008 274.809 209.954 273.636C207.901 272.463 206.273 270.864 205.07 268.84C203.897 266.816 203.31 264.513 203.31 261.932C203.31 259.321 203.897 257.019 205.07 255.024C206.273 253 207.901 251.401 209.954 250.228C212.008 249.055 214.354 248.468 216.994 248.468ZM216.994 270.16C218.49 270.16 219.81 269.808 220.954 269.104C222.098 268.4 222.993 267.432 223.638 266.2C224.284 264.939 224.606 263.516 224.606 261.932C224.606 260.348 224.284 258.94 223.638 257.708C222.993 256.476 222.098 255.508 220.954 254.804C219.81 254.071 218.49 253.704 216.994 253.704C215.528 253.704 214.208 254.056 213.034 254.76C211.89 255.464 210.996 256.432 210.35 257.664C209.705 258.896 209.382 260.319 209.382 261.932C209.382 263.487 209.705 264.895 210.35 266.156C210.996 267.388 211.89 268.371 213.034 269.104C214.208 269.808 215.528 270.16 216.994 270.16ZM244.982 275H239.13V254.144H231.65V248.864H252.682L252.242 254.144H244.982V275ZM272.653 248.864L272.213 254.056H261.037V259.292H270.233V264.352H261.037V269.808H272.873V275H255.185V248.864H272.653Z" fill="#A0FFC0"/>
<path fill-rule="evenodd" clip-rule="evenodd" d="M80.036 186.664C80.716 185.622 81.056 184.352 81.056 182.856C81.056 181.36 80.716 180.102 80.036 179.082C79.3787 178.062 78.4153 177.28 77.146 176.736C75.8993 176.192 74.3807 175.92 72.59 175.92H65.654V196.116H70.176V189.792H72.556C74.3467 189.792 75.8767 189.532 77.146 189.01C78.4153 188.489 79.3787 187.707 80.036 186.664ZM76.024 181.02C76.364 181.496 76.534 182.108 76.534 182.856C76.534 183.604 76.364 184.216 76.024 184.692C75.7067 185.168 75.242 185.52 74.63 185.746C74.0407 185.973 73.3267 186.086 72.488 186.086H70.176V179.626H72.488C73.3267 179.626 74.0407 179.74 74.63 179.966C75.242 180.193 75.7067 180.544 76.024 181.02ZM91.0289 196.116H95.1429V186.834C95.1429 184.772 94.5309 183.264 93.3069 182.312C92.1056 181.338 90.3716 180.85 88.1049 180.85C87.0849 180.85 86.0876 180.952 85.1129 181.156C84.1609 181.338 83.3336 181.598 82.6309 181.938L82.8009 185.746C83.3222 185.429 84.0136 185.168 84.8749 184.964C85.7589 184.76 86.6202 184.658 87.4589 184.658C88.6376 184.658 89.4989 184.851 90.0429 185.236C90.6096 185.599 90.8929 186.222 90.8929 187.106V187.922C90.4849 187.741 89.9522 187.594 89.2949 187.48C88.6376 187.367 87.9802 187.31 87.3229 187.31C85.5096 187.31 84.0702 187.707 83.0049 188.5C81.9396 189.271 81.4069 190.416 81.4069 191.934C81.4069 193.34 81.8376 194.439 82.6989 195.232C83.5829 196.026 84.8522 196.422 86.5069 196.422C87.4362 196.422 88.2862 196.286 89.0569 196.014C89.8276 195.742 90.4849 195.391 91.0289 194.96V196.116ZM90.8929 190.506V192.648C90.5756 192.898 90.1449 193.113 89.6009 193.294C89.0569 193.453 88.5242 193.532 88.0029 193.532C87.2549 193.532 86.6882 193.408 86.3029 193.158C85.9176 192.886 85.7249 192.456 85.7249 191.866C85.7249 191.232 85.9516 190.767 86.4049 190.472C86.8582 190.155 87.5156 189.996 88.3769 189.996C88.8076 189.996 89.2496 190.042 89.7029 190.132C90.1789 190.223 90.5756 190.348 90.8929 190.506ZM115.679 196.116L120.099 181.156H115.815L113.877 188.194C113.764 188.67 113.639 189.237 113.503 189.894C113.39 190.529 113.299 191.118 113.231 191.662H113.061C112.993 191.118 112.88 190.529 112.721 189.894C112.562 189.237 112.415 188.67 112.279 188.194L110.307 182.278H105.683L103.711 188.194C103.575 188.67 103.428 189.237 103.269 189.894C103.11 190.529 102.997 191.118 102.929 191.662H102.759C102.691 191.118 102.589 190.529 102.453 189.894C102.34 189.237 102.226 188.67 102.113 188.194L100.107 181.054L95.7212 181.258L100.141 196.116H104.765L106.533 190.846C106.85 189.758 107.111 188.886 107.315 188.228C107.542 187.548 107.712 186.925 107.825 186.358H107.995C108.131 186.925 108.301 187.548 108.505 188.228C108.709 188.886 108.97 189.758 109.287 190.846L111.055 196.116H115.679ZM130.916 196.116H135.268V186.256C135.268 184.398 134.792 183.038 133.84 182.176C132.911 181.292 131.664 180.85 130.1 180.85C129.261 180.85 128.457 180.986 127.686 181.258C126.938 181.508 126.201 181.904 125.476 182.448V181.054L121.124 181.258V196.116H125.476V185.644C125.952 185.35 126.451 185.123 126.972 184.964C127.493 184.783 128.003 184.692 128.502 184.692C129.25 184.692 129.839 184.885 130.27 185.27C130.701 185.656 130.916 186.29 130.916 187.174V196.116ZM151.715 192.648C152.418 191.47 152.769 190.132 152.769 188.636C152.769 187.118 152.418 185.78 151.715 184.624C151.035 183.446 150.083 182.528 148.859 181.87C147.635 181.19 146.241 180.85 144.677 180.85C143.113 180.85 141.719 181.19 140.495 181.87C139.271 182.528 138.308 183.446 137.605 184.624C136.925 185.78 136.585 187.118 136.585 188.636C136.585 190.132 136.925 191.47 137.605 192.648C138.308 193.827 139.271 194.756 140.495 195.436C141.719 196.094 143.113 196.422 144.677 196.422C146.241 196.422 147.635 196.094 148.859 195.436C150.083 194.756 151.035 193.827 151.715 192.648ZM147.805 186.562C148.123 187.152 148.281 187.843 148.281 188.636C148.281 189.43 148.123 190.132 147.805 190.744C147.511 191.334 147.091 191.798 146.547 192.138C146.003 192.456 145.38 192.614 144.677 192.614C144.02 192.614 143.408 192.456 142.841 192.138C142.297 191.798 141.867 191.334 141.549 190.744C141.232 190.132 141.073 189.43 141.073 188.636C141.073 187.843 141.232 187.152 141.549 186.562C141.867 185.95 142.297 185.486 142.841 185.168C143.385 184.828 143.997 184.658 144.677 184.658C145.357 184.658 145.969 184.828 146.513 185.168C147.057 185.486 147.488 185.95 147.805 186.562ZM163.125 184.896L163.431 181.156H159.147V177.11L154.829 178.028V181.156H152.789V184.896H154.829V191.05C154.829 192.773 155.259 194.099 156.121 195.028C156.982 195.958 158.354 196.422 160.235 196.422C161.595 196.422 162.671 196.162 163.465 195.64L163.295 191.968C163.045 192.15 162.739 192.308 162.377 192.444C162.037 192.558 161.674 192.614 161.289 192.614C160.586 192.614 160.053 192.467 159.691 192.172C159.328 191.855 159.147 191.322 159.147 190.574V184.896H163.125ZM168.453 189.69H178.041C178.086 189.328 178.12 188.942 178.143 188.534C178.188 188.104 178.211 187.741 178.211 187.446C178.211 186.064 177.916 184.885 177.327 183.91C176.76 182.913 175.955 182.154 174.913 181.632C173.893 181.111 172.725 180.85 171.411 180.85C169.983 180.85 168.691 181.179 167.535 181.836C166.401 182.471 165.506 183.366 164.849 184.522C164.214 185.656 163.897 187.004 163.897 188.568C163.897 190.155 164.237 191.538 164.917 192.716C165.619 193.895 166.651 194.813 168.011 195.47C169.393 196.105 171.048 196.422 172.975 196.422C173.836 196.422 174.754 196.32 175.729 196.116C176.726 195.89 177.519 195.572 178.109 195.164L177.939 191.458C177.372 191.798 176.647 192.082 175.763 192.308C174.879 192.512 174.051 192.614 173.281 192.614C172.374 192.614 171.581 192.501 170.901 192.274C170.243 192.048 169.699 191.719 169.269 191.288C168.861 190.835 168.589 190.302 168.453 189.69ZM169.269 184.862C169.835 184.273 170.561 183.978 171.445 183.978C172.283 183.978 172.941 184.239 173.417 184.76C173.915 185.259 174.165 185.928 174.165 186.766V187.004V187.208H168.283C168.396 186.234 168.725 185.452 169.269 184.862ZM40 182.935L53.1429 182.935V176.116H40V182.935ZM60 182.935H53.1429C45.8738 182.996 40 188.874 40 196.116H46.8571C46.8571 192.64 49.661 189.814 53.1429 189.754V196.116H60V182.935Z" fill="#A0FFC0"/>
<g style="mix-blend-mode:overlay">
<path fill-rule="evenodd" clip-rule="evenodd" d="M499.809 140L640 140V212.475L499.81 212.475L499.809 140L427 140V6.10352e-05L499.81 -0.858246V67.0099C536.95 66.3633 566.857 36.2253 566.857 -0.858246H640C640 76.3919 577.347 139.349 499.809 140Z" fill="#A0FFC0" fill-opacity="0.7"/>
<path fill-rule="evenodd" clip-rule="evenodd" d="M353.524 -0.272728L213.333 -0.267609V-73H353.524V-0.267609L427 0V140H353.524V72.4652C316.384 73.1118 286.5 102.916 286.5 140H214C214 62.7498 275.987 0.3834 353.524 -0.267609V-0.272728Z" fill="#A0FFC0" fill-opacity="0.5"/>
<path fill-rule="evenodd" clip-rule="evenodd" d="M73.1429 67.6061L214 67.6061V140H73.1429V67.6009L-1.52588e-05 67.6009L-1.52588e-05 -73H73.1429V-5.13184C110.283 -5.77849 140.19 -35.9165 140.19 -73H213.333C213.333 4.25012 150.68 66.9499 73.1429 67.6009V67.6061Z" fill="#A0FFC0"/>
</g>
</g>
<defs>
<radialGradient id="paint0_radial_368_6499" cx="0" cy="0" r="1" gradientUnits="userSpaceOnUse" gradientTransform="translate(7.28351e-07 392.5) rotate(44.6199) scale(426.395 545.838)">
<stop offset="0.100613" stop-color="#A0FFC0" stop-opacity="0"/>
<stop offset="0.71" stop-color="#26BD8B"/>
<stop offset="1" stop-color="#159D70" stop-opacity="0"/>
</radialGradient>
<radialGradient id="paint1_radial_368_6499" cx="0" cy="0" r="1" gradientUnits="userSpaceOnUse" gradientTransform="translate(876 -336) rotate(95.2439) scale(995.667 1336.96)">
<stop stop-color="#A0FFC0" stop-opacity="0"/>
<stop offset="0.5" stop-color="#A0FFC0"/>
<stop offset="1" stop-color="#A0FFC0" stop-opacity="0"/>
</radialGradient>
<clipPath id="clip0_368_6499">
<rect width="640" height="320" fill="white"/>
</clipPath>
</defs>
</svg>
