<svg width="830" height="135" viewBox="0 0 830 135" fill="none" xmlns="http://www.w3.org/2000/svg">
<g clip-path="url(#clip0_371_6376)">
<rect width="830" height="135" rx="14" fill="#16301F"/>
<rect width="830" height="135" rx="14" fill="#16301F"/>
<rect width="830" height="135" rx="14" fill="url(#paint0_radial_371_6376)" fill-opacity="0.2"/>
<rect width="830" height="135" rx="14" fill="url(#paint1_radial_371_6376)" fill-opacity="0.2"/>
<path fill-rule="evenodd" clip-rule="evenodd" d="M39.0098 30.8346L28 30.835V25.123H39.0098V30.835H44.754V41.8771H39.0098V36.5471C36.093 36.5979 33.7442 38.9647 33.7442 41.8771H28C28 35.8103 32.9205 30.8862 39.0098 30.835V30.8346Z" fill="#A0FFC0"/>
<path d="M67.0059 31.08C67.0059 32.312 66.7259 33.3573 66.1659 34.216C65.6246 35.0747 64.8312 35.7187 63.7859 36.148C62.7406 36.5773 61.4806 36.792 60.0059 36.792H58.0459V42H54.3219V25.368H60.0339C61.5086 25.368 62.7592 25.592 63.7859 26.04C64.8312 26.488 65.6246 27.132 66.1659 27.972C66.7259 28.812 67.0059 29.848 67.0059 31.08ZM63.2819 31.08C63.2819 30.464 63.1419 29.96 62.8619 29.568C62.6006 29.176 62.2179 28.8867 61.7139 28.7C61.2286 28.5133 60.6406 28.42 59.9499 28.42H58.0459V33.74H59.9499C60.6406 33.74 61.2286 33.6467 61.7139 33.46C62.2179 33.2733 62.6006 32.984 62.8619 32.592C63.1419 32.2 63.2819 31.696 63.2819 31.08ZM78.6069 42H75.2189V41.048C74.7709 41.4027 74.2295 41.692 73.5949 41.916C72.9602 42.14 72.2602 42.252 71.4949 42.252C70.1322 42.252 69.0869 41.9253 68.3589 41.272C67.6495 40.6187 67.2949 39.7133 67.2949 38.556C67.2949 37.3053 67.7335 36.3627 68.6109 35.728C69.4882 35.0747 70.6735 34.748 72.1669 34.748C72.7082 34.748 73.2495 34.7947 73.7909 34.888C74.3322 34.9813 74.7709 35.1027 75.1069 35.252V34.58C75.1069 33.852 74.8735 33.3387 74.4069 33.04C73.9589 32.7227 73.2495 32.564 72.2789 32.564C71.5882 32.564 70.8789 32.648 70.1509 32.816C69.4415 32.984 68.8722 33.1987 68.4429 33.46L68.3029 30.324C68.8815 30.044 69.5629 29.8293 70.3469 29.68C71.1495 29.512 71.9709 29.428 72.8109 29.428C74.6775 29.428 76.1055 29.8293 77.0949 30.632C78.1029 31.416 78.6069 32.6573 78.6069 34.356V42ZM75.1069 39.144V37.38C74.8455 37.2493 74.5189 37.1467 74.1269 37.072C73.7535 36.9973 73.3895 36.96 73.0349 36.96C72.3255 36.96 71.7842 37.0907 71.4109 37.352C71.0375 37.5947 70.8509 37.9773 70.8509 38.5C70.8509 38.9853 71.0095 39.34 71.3269 39.564C71.6442 39.7693 72.1109 39.872 72.7269 39.872C73.1562 39.872 73.5949 39.8067 74.0429 39.676C74.4909 39.5267 74.8455 39.3493 75.1069 39.144ZM99.1591 29.68L95.5191 42H91.7111L90.2551 37.66C89.9938 36.764 89.7791 36.0453 89.6111 35.504C89.4431 34.944 89.3031 34.4307 89.1911 33.964H89.0511C88.9578 34.4307 88.8178 34.944 88.6311 35.504C88.4631 36.0453 88.2484 36.764 87.9871 37.66L86.5311 42H82.7231L79.0831 29.764L82.6951 29.596L84.3471 35.476C84.4404 35.868 84.5338 36.3347 84.6271 36.876C84.7391 37.3987 84.8231 37.884 84.8791 38.332H85.0191C85.0751 37.884 85.1684 37.3987 85.2991 36.876C85.4298 36.3347 85.5511 35.868 85.6631 35.476L87.2871 30.604H91.0951L92.7191 35.476C92.8311 35.868 92.9524 36.3347 93.0831 36.876C93.2138 37.3987 93.3071 37.884 93.3631 38.332H93.5031C93.5591 37.884 93.6338 37.3987 93.7271 36.876C93.8391 36.3347 93.9418 35.868 94.0351 35.476L95.6311 29.68H99.1591ZM111.651 42H108.067V34.636C108.067 33.908 107.89 33.3853 107.535 33.068C107.18 32.7507 106.695 32.592 106.079 32.592C105.668 32.592 105.248 32.6667 104.819 32.816C104.39 32.9467 103.979 33.1333 103.587 33.376V42H100.003V29.764L103.587 29.596V30.744C104.184 30.296 104.791 29.9693 105.407 29.764C106.042 29.54 106.704 29.428 107.395 29.428C108.683 29.428 109.71 29.792 110.475 30.52C111.259 31.2293 111.651 32.3493 111.651 33.88V42ZM126.064 35.84C126.064 37.072 125.774 38.1733 125.196 39.144C124.636 40.1147 123.852 40.88 122.844 41.44C121.836 41.9813 120.688 42.252 119.4 42.252C118.112 42.252 116.964 41.9813 115.956 41.44C114.948 40.88 114.154 40.1147 113.576 39.144C113.016 38.1733 112.736 37.072 112.736 35.84C112.736 34.5893 113.016 33.488 113.576 32.536C114.154 31.5653 114.948 30.8093 115.956 30.268C116.964 29.708 118.112 29.428 119.4 29.428C120.688 29.428 121.836 29.708 122.844 30.268C123.852 30.8093 124.636 31.5653 125.196 32.536C125.774 33.488 126.064 34.5893 126.064 35.84ZM122.368 35.84C122.368 35.1867 122.237 34.6173 121.976 34.132C121.714 33.628 121.36 33.2453 120.912 32.984C120.464 32.704 119.96 32.564 119.4 32.564C118.84 32.564 118.336 32.704 117.888 32.984C117.44 33.2453 117.085 33.628 116.824 34.132C116.562 34.6173 116.432 35.1867 116.432 35.84C116.432 36.4933 116.562 37.072 116.824 37.576C117.085 38.0613 117.44 38.444 117.888 38.724C118.354 38.9853 118.858 39.116 119.4 39.116C119.978 39.116 120.492 38.9853 120.94 38.724C121.388 38.444 121.733 38.0613 121.976 37.576C122.237 37.072 122.368 36.4933 122.368 35.84ZM134.844 29.68L134.592 32.76H131.316V37.436C131.316 38.052 131.465 38.4907 131.764 38.752C132.063 38.9947 132.501 39.116 133.08 39.116C133.397 39.116 133.696 39.0693 133.976 38.976C134.275 38.864 134.527 38.7333 134.732 38.584L134.872 41.608C134.219 42.0373 133.332 42.252 132.212 42.252C130.663 42.252 129.533 41.8693 128.824 41.104C128.115 40.3387 127.76 39.2467 127.76 37.828V32.76H126.08V29.68H127.76V27.104L131.316 26.348V29.68H134.844ZM146.876 36.708H138.98C139.092 37.212 139.316 37.6507 139.652 38.024C140.006 38.3787 140.454 38.6493 140.996 38.836C141.556 39.0227 142.209 39.116 142.956 39.116C143.59 39.116 144.272 39.032 145 38.864C145.728 38.6773 146.325 38.444 146.792 38.164L146.932 41.216C146.446 41.552 145.793 41.8133 144.972 42C144.169 42.168 143.413 42.252 142.704 42.252C141.117 42.252 139.754 41.9907 138.616 41.468C137.496 40.9267 136.646 40.1707 136.068 39.2C135.508 38.2293 135.228 37.0907 135.228 35.784C135.228 34.496 135.489 33.3853 136.012 32.452C136.553 31.5 137.29 30.7627 138.224 30.24C139.176 29.6987 140.24 29.428 141.416 29.428C142.498 29.428 143.46 29.6427 144.3 30.072C145.158 30.5013 145.821 31.1267 146.288 31.948C146.773 32.7507 147.016 33.7213 147.016 34.86C147.016 35.1027 146.997 35.4013 146.96 35.756C146.941 36.092 146.913 36.4093 146.876 36.708ZM141.444 32.004C140.716 32.004 140.118 32.2467 139.652 32.732C139.204 33.2173 138.933 33.8613 138.84 34.664H143.684C143.684 34.6267 143.684 34.5707 143.684 34.496C143.684 34.4027 143.684 34.3373 143.684 34.3C143.684 33.6093 143.478 33.0587 143.068 32.648C142.676 32.2187 142.134 32.004 141.444 32.004Z" fill="#A0FFC0"/>
<path d="M48.4377 78H43.5601L41.8427 73.0194H34.6637L32.9119 78H28.2748L35.6942 57.5966H41.0183L48.4377 78ZM40.6748 69.4127L39.0261 64.7756C38.8658 64.3176 38.7284 63.894 38.6139 63.5047C38.5223 63.0925 38.4307 62.6803 38.3391 62.2681H38.1673C38.0757 62.6803 37.9727 63.0925 37.8582 63.5047C37.7666 63.894 37.6407 64.3176 37.4804 64.7756L35.7972 69.4127H40.6748ZM71.6142 70.2714C71.6142 71.8057 71.2822 73.1797 70.6181 74.3933C69.9769 75.607 69.0839 76.5688 67.9389 77.2787C66.8168 77.9657 65.5116 78.3091 64.0231 78.3091C62.7407 78.3091 61.6988 78.103 60.8973 77.6909V84.3546H56.5006V62.9894L60.8973 62.7833V63.8825C61.424 63.4474 62.0079 63.1268 62.6491 62.9207C63.2903 62.6917 64.0231 62.5772 64.8475 62.5772C66.1069 62.5772 67.2405 62.8864 68.248 63.5047C69.2785 64.123 70.0914 65.0046 70.6868 66.1496C71.3051 67.2945 71.6142 68.6685 71.6142 70.2714ZM67.0802 70.4088C67.0802 69.5845 66.9428 68.8746 66.668 68.2792C66.3932 67.6609 65.981 67.1915 65.4314 66.8709C64.9047 66.5274 64.2406 66.3556 63.4392 66.3556C62.4545 66.3556 61.6072 66.619 60.8973 67.1457V74.1185C61.195 74.233 61.5385 74.3361 61.9278 74.4277C62.34 74.4964 62.7636 74.5307 63.1987 74.5307C64.0002 74.5307 64.6872 74.3704 65.2597 74.0499C65.8321 73.7064 66.2787 73.2255 66.5993 72.6072C66.9199 71.966 67.0802 71.2332 67.0802 70.4088ZM87.7519 62.7833V78H83.3552V76.7291C82.6453 77.2787 81.924 77.6794 81.1912 77.9313C80.4584 78.1832 79.6684 78.3091 78.8211 78.3091C77.264 78.3091 76.0045 77.8741 75.0427 77.0039C74.0809 76.1108 73.6001 74.7254 73.6001 72.8476V62.9894L77.9967 62.7833V71.9202C77.9967 72.8133 78.2143 73.4545 78.6494 73.8438C79.0845 74.233 79.6799 74.4277 80.4355 74.4277C80.9393 74.4277 81.4431 74.3475 81.9469 74.1872C82.4507 74.0041 82.9201 73.7751 83.3552 73.5003V62.9894L87.7519 62.7833ZM100.284 62.749L100.112 66.9739C99.9745 66.9052 99.7341 66.8365 99.3906 66.7678C99.07 66.6991 98.7609 66.6648 98.4632 66.6648C97.8449 66.6648 97.2381 66.7793 96.6427 67.0083C96.0702 67.2144 95.5435 67.5006 95.0626 67.867V78H90.6659V62.9894L95.0626 62.7833V64.5695C95.7267 63.8825 96.4022 63.3787 97.0892 63.0581C97.7991 62.7375 98.5319 62.5772 99.2876 62.5772C99.4479 62.5772 99.6196 62.5887 99.8028 62.6116C100.009 62.6345 100.169 62.6803 100.284 62.749ZM111.58 62.749L111.408 66.9739C111.271 66.9052 111.03 66.8365 110.687 66.7678C110.366 66.6991 110.057 66.6648 109.759 66.6648C109.141 66.6648 108.534 66.7793 107.939 67.0083C107.366 67.2144 106.84 67.5006 106.359 67.867V78H101.962V62.9894L106.359 62.7833V64.5695C107.023 63.8825 107.699 63.3787 108.386 63.0581C109.095 62.7375 109.828 62.5772 110.584 62.5772C110.744 62.5772 110.916 62.5887 111.099 62.6116C111.305 62.6345 111.465 62.6803 111.58 62.749ZM122.567 56.4631L122.395 60.2415C122.235 60.1728 122.018 60.127 121.743 60.1041C121.491 60.0812 121.25 60.0698 121.021 60.0698C120.197 60.0698 119.567 60.253 119.132 60.6193C118.697 60.9857 118.48 61.5926 118.48 62.4399V62.8864H122.224L121.915 66.6648H118.48V78H114.083V66.6648H112.022V62.8864H114.083V62.3712C114.083 60.356 114.667 58.8332 115.835 57.8027C117.003 56.7493 118.571 56.2227 120.541 56.2227C120.861 56.2227 121.216 56.2456 121.605 56.2914C121.995 56.3372 122.315 56.3944 122.567 56.4631ZM137.314 71.508H127.627C127.765 72.1263 128.039 72.6644 128.452 73.1224C128.887 73.5575 129.436 73.8896 130.1 74.1185C130.787 74.3475 131.589 74.462 132.505 74.462C133.283 74.462 134.119 74.359 135.012 74.1529C135.905 73.9239 136.638 73.6377 137.211 73.2942L137.382 77.0382C136.787 77.4504 135.985 77.771 134.978 78C133.993 78.2061 133.066 78.3091 132.196 78.3091C130.249 78.3091 128.578 77.9886 127.181 77.3474C125.807 76.6833 124.765 75.7559 124.055 74.5651C123.368 73.3743 123.024 71.9775 123.024 70.3745C123.024 68.7944 123.345 67.4319 123.986 66.287C124.65 65.1191 125.555 64.2146 126.7 63.5734C127.868 62.9093 129.173 62.5772 130.616 62.5772C131.944 62.5772 133.123 62.8406 134.154 63.3673C135.207 63.894 136.02 64.6611 136.592 65.6687C137.188 66.6533 137.485 67.8441 137.485 69.241C137.485 69.5387 137.462 69.9051 137.417 70.3401C137.394 70.7523 137.359 71.1416 137.314 71.508ZM130.65 65.7374C129.757 65.7374 129.024 66.0351 128.452 66.6304C127.902 67.2258 127.57 68.0159 127.455 69.0005H133.398C133.398 68.9547 133.398 68.886 133.398 68.7944C133.398 68.6799 133.398 68.5998 133.398 68.554C133.398 67.7067 133.146 67.0312 132.642 66.5274C132.161 66.0007 131.497 65.7374 130.65 65.7374ZM151.8 63.9169L150.838 67.9014C150.449 67.5121 149.933 67.1915 149.292 66.9396C148.651 66.6877 147.987 66.5617 147.3 66.5617C146.544 66.5617 145.857 66.722 145.239 67.0426C144.644 67.3403 144.174 67.7754 143.831 68.3479C143.51 68.9204 143.35 69.6074 143.35 70.4088C143.35 71.2332 143.521 71.9431 143.865 72.5385C144.208 73.1339 144.701 73.5804 145.342 73.8781C146.006 74.1758 146.773 74.3246 147.643 74.3246C148.422 74.3246 149.155 74.2101 149.842 73.9812C150.552 73.7522 151.181 73.4545 151.731 73.0881L151.903 77.0039C151.261 77.3932 150.529 77.7138 149.704 77.9657C148.88 78.1946 147.952 78.3091 146.922 78.3091C145.479 78.3091 144.14 78 142.903 77.3817C141.667 76.7634 140.67 75.8704 139.915 74.7025C139.182 73.5117 138.816 72.0805 138.816 70.4088C138.816 68.8975 139.171 67.5579 139.88 66.39C140.59 65.1992 141.552 64.2718 142.766 63.6077C143.979 62.9207 145.33 62.5772 146.819 62.5772C147.918 62.5772 148.88 62.7032 149.704 62.9551C150.552 63.1841 151.25 63.5047 151.8 63.9169ZM163.37 62.8864L163.061 66.6648H159.042V72.4011C159.042 73.1568 159.225 73.6949 159.592 74.0155C159.958 74.3132 160.496 74.462 161.206 74.462C161.595 74.462 161.962 74.4048 162.305 74.2903C162.672 74.1529 162.981 73.9926 163.233 73.8094L163.404 77.5191C162.603 78.0458 161.515 78.3091 160.141 78.3091C158.241 78.3091 156.855 77.8397 155.985 76.9008C155.115 75.962 154.68 74.6223 154.68 72.882V66.6648H152.619V62.8864H154.68V59.7263L159.042 58.7988V62.8864H163.37ZM190.777 78H185.9L184.182 73.0194H177.003L175.251 78H170.614L178.034 57.5966H183.358L190.777 78ZM183.014 69.4127L181.366 64.7756C181.205 64.3176 181.068 63.894 180.953 63.5047C180.862 63.0925 180.77 62.6803 180.679 62.2681H180.507C180.415 62.6803 180.312 63.0925 180.198 63.5047C180.106 63.894 179.98 64.3176 179.82 64.7756L178.137 69.4127H183.014ZM208.176 64.6038C208.176 66.1152 207.833 67.3976 207.146 68.4509C206.482 69.5043 205.509 70.2943 204.226 70.821C202.944 71.3477 201.398 71.6111 199.589 71.6111H197.185V78H192.616V57.5966H199.623C201.433 57.5966 202.967 57.8714 204.226 58.421C205.509 58.9706 206.482 59.7606 207.146 60.7911C207.833 61.8216 208.176 63.0925 208.176 64.6038ZM203.608 64.6038C203.608 63.8482 203.436 63.2299 203.093 62.749C202.772 62.2681 202.303 61.9132 201.684 61.6842C201.089 61.4552 200.368 61.3407 199.52 61.3407H197.185V67.867H199.52C200.368 67.867 201.089 67.7525 201.684 67.5235C202.303 67.2945 202.772 66.9396 203.093 66.4587C203.436 65.9778 203.608 65.3595 203.608 64.6038ZM215.223 57.5966V78H210.655V57.5966H215.223ZM248.45 62.8864L243.984 78H239.313L237.527 72.6759C237.206 71.5767 236.943 70.6951 236.737 70.031C236.531 69.344 236.359 68.7143 236.221 68.1418H236.05C235.935 68.7143 235.763 69.344 235.534 70.031C235.328 70.6951 235.065 71.5767 234.744 72.6759L232.958 78H228.287L223.821 62.9894L228.252 62.7833L230.279 69.9967C230.393 70.4775 230.508 71.05 230.622 71.7141C230.76 72.3553 230.863 72.9507 230.932 73.5003H231.103C231.172 72.9507 231.287 72.3553 231.447 71.7141C231.607 71.05 231.756 70.4775 231.893 69.9967L233.886 64.0199H238.557L240.549 69.9967C240.687 70.4775 240.836 71.05 240.996 71.7141C241.156 72.3553 241.271 72.9507 241.339 73.5003H241.511C241.58 72.9507 241.671 72.3553 241.786 71.7141C241.923 71.05 242.049 70.4775 242.164 69.9967L244.122 62.8864H248.45ZM259.79 62.749L259.618 66.9739C259.481 66.9052 259.24 66.8365 258.897 66.7678C258.576 66.6991 258.267 66.6648 257.969 66.6648C257.351 66.6648 256.744 66.7793 256.149 67.0083C255.576 67.2144 255.05 67.5006 254.569 67.867V78H250.172V62.9894L254.569 62.7833V64.5695C255.233 63.8825 255.908 63.3787 256.595 63.0581C257.305 62.7375 258.038 62.5772 258.794 62.5772C258.954 62.5772 259.126 62.5887 259.309 62.6116C259.515 62.6345 259.675 62.6803 259.79 62.749ZM274.452 78H270.296V76.8321C269.746 77.2672 269.082 77.6222 268.304 77.897C267.525 78.1717 266.666 78.3091 265.728 78.3091C264.056 78.3091 262.774 77.9084 261.88 77.1069C261.01 76.3054 260.575 75.1948 260.575 73.7751C260.575 72.2408 261.113 71.0844 262.19 70.3058C263.266 69.5043 264.72 69.1036 266.552 69.1036C267.216 69.1036 267.88 69.1608 268.544 69.2753C269.208 69.3898 269.746 69.5387 270.159 69.7219V68.8975C270.159 68.0044 269.872 67.3747 269.3 67.0083C268.75 66.619 267.88 66.4243 266.689 66.4243C265.842 66.4243 264.972 66.5274 264.079 66.7335C263.209 66.9396 262.51 67.2029 261.983 67.5235L261.812 63.6764C262.522 63.3329 263.357 63.0696 264.319 62.8864C265.304 62.6803 266.311 62.5772 267.342 62.5772C269.632 62.5772 271.384 63.0696 272.597 64.0543C273.834 65.016 274.452 66.5388 274.452 68.6227V78ZM270.159 74.4964V72.3324C269.838 72.1721 269.437 72.0462 268.956 71.9546C268.498 71.863 268.052 71.8172 267.617 71.8172C266.747 71.8172 266.082 71.9775 265.624 72.298C265.166 72.5957 264.938 73.0652 264.938 73.7064C264.938 74.3017 265.132 74.7368 265.521 75.0116C265.911 75.2635 266.483 75.3895 267.239 75.3895C267.766 75.3895 268.304 75.3093 268.853 75.149C269.403 74.9658 269.838 74.7483 270.159 74.4964ZM292.44 70.2714C292.44 71.8057 292.108 73.1797 291.444 74.3933C290.803 75.607 289.91 76.5688 288.765 77.2787C287.643 77.9657 286.337 78.3091 284.849 78.3091C283.567 78.3091 282.525 78.103 281.723 77.6909V84.3546H277.327V62.9894L281.723 62.7833V63.8825C282.25 63.4474 282.834 63.1268 283.475 62.9207C284.116 62.6917 284.849 62.5772 285.673 62.5772C286.933 62.5772 288.066 62.8864 289.074 63.5047C290.104 64.123 290.917 65.0046 291.513 66.1496C292.131 67.2945 292.44 68.6685 292.44 70.2714ZM287.906 70.4088C287.906 69.5845 287.769 68.8746 287.494 68.2792C287.219 67.6609 286.807 67.1915 286.257 66.8709C285.731 66.5274 285.067 66.3556 284.265 66.3556C283.28 66.3556 282.433 66.619 281.723 67.1457V74.1185C282.021 74.233 282.364 74.3361 282.754 74.4277C283.166 74.4964 283.59 74.5307 284.025 74.5307C284.826 74.5307 285.513 74.3704 286.086 74.0499C286.658 73.7064 287.105 73.2255 287.425 72.6072C287.746 71.966 287.906 71.2332 287.906 70.4088ZM309.54 70.2714C309.54 71.8057 309.208 73.1797 308.543 74.3933C307.902 75.607 307.009 76.5688 305.864 77.2787C304.742 77.9657 303.437 78.3091 301.948 78.3091C300.666 78.3091 299.624 78.103 298.823 77.6909V84.3546H294.426V62.9894L298.823 62.7833V63.8825C299.349 63.4474 299.933 63.1268 300.574 62.9207C301.216 62.6917 301.948 62.5772 302.773 62.5772C304.032 62.5772 305.166 62.8864 306.173 63.5047C307.204 64.123 308.017 65.0046 308.612 66.1496C309.23 67.2945 309.54 68.6685 309.54 70.2714ZM305.005 70.4088C305.005 69.5845 304.868 68.8746 304.593 68.2792C304.318 67.6609 303.906 67.1915 303.357 66.8709C302.83 66.5274 302.166 66.3556 301.364 66.3556C300.38 66.3556 299.533 66.619 298.823 67.1457V74.1185C299.12 74.233 299.464 74.3361 299.853 74.4277C300.265 74.4964 300.689 74.5307 301.124 74.5307C301.925 74.5307 302.612 74.3704 303.185 74.0499C303.757 73.7064 304.204 73.2255 304.525 72.6072C304.845 71.966 305.005 71.2332 305.005 70.4088ZM324.922 71.508H315.235C315.372 72.1263 315.647 72.6644 316.059 73.1224C316.495 73.5575 317.044 73.8896 317.708 74.1185C318.395 74.3475 319.197 74.462 320.113 74.462C320.891 74.462 321.727 74.359 322.62 74.1529C323.513 73.9239 324.246 73.6377 324.818 73.2942L324.99 77.0382C324.395 77.4504 323.593 77.771 322.586 78C321.601 78.2061 320.674 78.3091 319.803 78.3091C317.857 78.3091 316.185 77.9886 314.789 77.3474C313.415 76.6833 312.373 75.7559 311.663 74.5651C310.976 73.3743 310.632 71.9775 310.632 70.3745C310.632 68.7944 310.953 67.4319 311.594 66.287C312.258 65.1191 313.163 64.2146 314.308 63.5734C315.476 62.9093 316.781 62.5772 318.223 62.5772C319.552 62.5772 320.731 62.8406 321.761 63.3673C322.815 63.894 323.628 64.6611 324.2 65.6687C324.796 66.6533 325.093 67.8441 325.093 69.241C325.093 69.5387 325.07 69.9051 325.025 70.3401C325.002 70.7523 324.967 71.1416 324.922 71.508ZM318.258 65.7374C317.365 65.7374 316.632 66.0351 316.059 66.6304C315.51 67.2258 315.178 68.0159 315.063 69.0005H321.006C321.006 68.9547 321.006 68.886 321.006 68.7944C321.006 68.6799 321.006 68.5998 321.006 68.554C321.006 67.7067 320.754 67.0312 320.25 66.5274C319.769 66.0007 319.105 65.7374 318.258 65.7374ZM336.934 62.749L336.763 66.9739C336.625 66.9052 336.385 66.8365 336.041 66.7678C335.721 66.6991 335.411 66.6648 335.114 66.6648C334.496 66.6648 333.889 66.7793 333.293 67.0083C332.721 67.2144 332.194 67.5006 331.713 67.867V78H327.317V62.9894L331.713 62.7833V64.5695C332.377 63.8825 333.053 63.3787 333.74 63.0581C334.45 62.7375 335.183 62.5772 335.938 62.5772C336.098 62.5772 336.27 62.5887 336.453 62.6116C336.66 62.6345 336.82 62.6803 336.934 62.749ZM38.923 85.4631L38.7513 89.2415C38.591 89.1728 38.3734 89.127 38.0986 89.1041C37.8467 89.0812 37.6063 89.0698 37.3773 89.0698C36.5529 89.0698 35.9232 89.253 35.4881 89.6193C35.053 89.9857 34.8355 90.5926 34.8355 91.4399V91.8864H38.5795L38.2704 95.6648H34.8355V107H30.4388V95.6648H28.3778V91.8864H30.4388V91.3712C30.4388 89.356 31.0227 87.8332 32.1906 86.8027C33.3585 85.7493 34.9271 85.2227 36.8964 85.2227C37.217 85.2227 37.572 85.2456 37.9612 85.2914C38.3505 85.3372 38.6711 85.3944 38.923 85.4631ZM55.6969 99.4432C55.6969 100.955 55.342 102.306 54.6321 103.496C53.9451 104.687 52.9833 105.626 51.7468 106.313C50.5102 106.977 49.1019 107.309 47.5218 107.309C45.9418 107.309 44.5335 106.977 43.2969 106.313C42.0603 105.626 41.0871 104.687 40.3772 103.496C39.6902 102.306 39.3467 100.955 39.3467 99.4432C39.3467 97.9089 39.6902 96.5579 40.3772 95.39C41.0871 94.1992 42.0603 93.2718 43.2969 92.6077C44.5335 91.9207 45.9418 91.5772 47.5218 91.5772C49.1019 91.5772 50.5102 91.9207 51.7468 92.6077C52.9833 93.2718 53.9451 94.1992 54.6321 95.39C55.342 96.5579 55.6969 97.9089 55.6969 99.4432ZM51.1628 99.4432C51.1628 98.6417 51.0025 97.9433 50.682 97.3479C50.3614 96.7296 49.9263 96.2602 49.3767 95.9396C48.8271 95.5961 48.2088 95.4243 47.5218 95.4243C46.8349 95.4243 46.2166 95.5961 45.667 95.9396C45.1174 96.2602 44.6823 96.7296 44.3617 97.3479C44.0411 97.9433 43.8808 98.6417 43.8808 99.4432C43.8808 100.245 44.0411 100.955 44.3617 101.573C44.6823 102.168 45.1174 102.638 45.667 102.981C46.2395 103.302 46.8578 103.462 47.5218 103.462C48.2317 103.462 48.8615 103.302 49.411 102.981C49.9606 102.638 50.3843 102.168 50.682 101.573C51.0025 100.955 51.1628 100.245 51.1628 99.4432ZM67.2924 91.749L67.1207 95.9739C66.9833 95.9052 66.7428 95.8365 66.3994 95.7678C66.0788 95.6991 65.7696 95.6648 65.4719 95.6648C64.8536 95.6648 64.2468 95.7793 63.6514 96.0083C63.0789 96.2144 62.5523 96.5006 62.0714 96.867V107H57.6747V91.9894L62.0714 91.7833V93.5695C62.7355 92.8825 63.411 92.3787 64.098 92.0581C64.8078 91.7375 65.5406 91.5772 66.2963 91.5772C66.4566 91.5772 66.6283 91.5887 66.8115 91.6116C67.0176 91.6345 67.1779 91.6803 67.2924 91.749Z" fill="white"/>
<path d="M91.3733 93.6038C91.3733 95.1152 91.0298 96.3976 90.3428 97.4509C89.6788 98.5043 88.7055 99.2943 87.4232 99.821C86.1408 100.348 84.5951 100.611 82.786 100.611H80.3816V107H75.8132V86.5966H82.8204C84.6294 86.5966 86.1637 86.8714 87.4232 87.421C88.7055 87.9706 89.6788 88.7606 90.3428 89.7911C91.0298 90.8216 91.3733 92.0925 91.3733 93.6038ZM86.8049 93.6038C86.8049 92.8482 86.6331 92.2299 86.2896 91.749C85.969 91.2681 85.4996 90.9132 84.8813 90.6842C84.2859 90.4552 83.5646 90.3407 82.7173 90.3407H80.3816V96.867H82.7173C83.5646 96.867 84.2859 96.7525 84.8813 96.5235C85.4996 96.2945 85.969 95.9396 86.2896 95.4587C86.6331 94.9778 86.8049 94.3595 86.8049 93.6038ZM109.378 93.4664C109.378 94.8175 109 95.9854 108.244 96.9701C107.511 97.9318 106.584 98.6074 105.462 98.9967L110.82 107H105.531L100.996 100.13H98.4202V107H93.8518V86.5966H100.928C102.714 86.5966 104.237 86.8714 105.496 87.421C106.756 87.9477 107.717 88.7263 108.381 89.7567C109.046 90.7643 109.378 92.0009 109.378 93.4664ZM104.775 93.4664C104.775 92.7566 104.603 92.1726 104.26 91.7146C103.939 91.2338 103.481 90.8903 102.886 90.6842C102.313 90.4552 101.615 90.3407 100.79 90.3407H98.4202V96.5579H100.79C101.615 96.5579 102.313 96.4548 102.886 96.2487C103.481 96.0197 103.939 95.6762 104.26 95.2183C104.603 94.7603 104.775 94.1763 104.775 93.4664ZM122.146 86.2875C124.229 86.2875 126.073 86.7455 127.676 87.6614C129.279 88.5774 130.538 89.8254 131.454 91.4055C132.37 92.9627 132.828 94.7603 132.828 96.7983C132.828 98.8135 132.37 100.611 131.454 102.191C130.538 103.771 129.279 105.019 127.676 105.935C126.073 106.851 124.229 107.309 122.146 107.309C120.085 107.309 118.253 106.851 116.65 105.935C115.047 105.019 113.776 103.771 112.837 102.191C111.921 100.611 111.463 98.8135 111.463 96.7983C111.463 94.7603 111.921 92.9627 112.837 91.4055C113.776 89.8254 115.047 88.5774 116.65 87.6614C118.253 86.7455 120.085 86.2875 122.146 86.2875ZM122.146 103.222C123.313 103.222 124.344 102.947 125.237 102.397C126.13 101.848 126.828 101.092 127.332 100.13C127.836 99.1455 128.088 98.0349 128.088 96.7983C128.088 95.5617 127.836 94.4626 127.332 93.5008C126.828 92.539 126.13 91.7833 125.237 91.2338C124.344 90.6613 123.313 90.375 122.146 90.375C121.001 90.375 119.97 90.6498 119.054 91.1994C118.161 91.749 117.463 92.5047 116.959 93.4664C116.455 94.4282 116.203 95.5388 116.203 96.7983C116.203 98.012 116.455 99.1112 116.959 100.096C117.463 101.058 118.161 101.825 119.054 102.397C119.97 102.947 121.001 103.222 122.146 103.222ZM153.055 86.5966V107H149.139L141.376 96.1113C141.078 95.6991 140.792 95.287 140.517 94.8748C140.265 94.4397 140.036 94.0275 139.83 93.6382H139.659V107H135.296V86.5966H139.727L146.975 96.7983C147.273 97.1876 147.547 97.5998 147.799 98.0349C148.074 98.4471 148.314 98.8478 148.521 99.2371H148.692V86.5966H153.055ZM166.173 86.2875C168.257 86.2875 170.1 86.7455 171.703 87.6614C173.306 88.5774 174.565 89.8254 175.481 91.4055C176.397 92.9627 176.855 94.7603 176.855 96.7983C176.855 98.8135 176.397 100.611 175.481 102.191C174.565 103.771 173.306 105.019 171.703 105.935C170.1 106.851 168.257 107.309 166.173 107.309C164.112 107.309 162.28 106.851 160.677 105.935C159.074 105.019 157.803 103.771 156.864 102.191C155.948 100.611 155.49 98.8135 155.49 96.7983C155.49 94.7603 155.948 92.9627 156.864 91.4055C157.803 89.8254 159.074 88.5774 160.677 87.6614C162.28 86.7455 164.112 86.2875 166.173 86.2875ZM166.173 103.222C167.341 103.222 168.371 102.947 169.264 102.397C170.157 101.848 170.856 101.092 171.36 100.13C171.863 99.1455 172.115 98.0349 172.115 96.7983C172.115 95.5617 171.863 94.4626 171.36 93.5008C170.856 92.539 170.157 91.7833 169.264 91.2338C168.371 90.6613 167.341 90.375 166.173 90.375C165.028 90.375 163.997 90.6498 163.081 91.1994C162.188 91.749 161.49 92.5047 160.986 93.4664C160.482 94.4282 160.23 95.5388 160.23 96.7983C160.23 98.012 160.482 99.1112 160.986 100.096C161.49 101.058 162.188 101.825 163.081 102.397C163.997 102.947 165.028 103.222 166.173 103.222ZM188.022 107H183.453V90.7185H177.614V86.5966H194.033L193.689 90.7185H188.022V107ZM209.623 86.5966L209.28 90.6498H200.555V94.7374H207.734V98.6875H200.555V102.947H209.795V107H195.987V86.5966H209.623Z" fill="#A0FFC0"/>
<g style="mix-blend-mode:overlay">
<path fill-rule="evenodd" clip-rule="evenodd" d="M477.798 -3.92365L379 -3.92364V-55L477.798 -55L477.798 -3.92365L529.11 -3.92364V94.7405L477.798 95.3454L477.798 47.5157C451.624 47.9714 430.547 69.211 430.547 95.3454H379C379 40.9038 423.155 -3.46485 477.798 -3.92365Z" fill="#A0FFC0"/>
<path fill-rule="evenodd" clip-rule="evenodd" d="M580.892 94.9327L679.69 94.9291V146.187H580.892V94.9291L529.11 94.7405V-3.92369L580.892 -3.92369V43.6711C607.066 43.2153 628.127 22.2107 628.127 -3.92369H679.221C679.221 50.5179 635.536 94.4703 580.892 94.9291V94.9327Z" fill="#A0FFC0" fill-opacity="0.5"/>
<path fill-rule="evenodd" clip-rule="evenodd" d="M778.489 47.0955L679.221 47.0955V-3.92371L778.489 -3.92371V47.0991L830.036 47.0991V146.187H778.489V98.3571C752.315 98.8128 731.238 120.052 731.238 146.187H679.691C679.691 91.7452 723.845 47.5579 778.489 47.0991V47.0955Z" fill="#A0FFC0" fill-opacity="0.7"/>
</g>
</g>
<rect x="0.5" y="0.5" width="829" height="134" rx="13.5" stroke="url(#paint2_linear_371_6376)" style="mix-blend-mode:overlay"/>
<rect x="0.5" y="0.5" width="829" height="134" rx="13.5" stroke="url(#paint3_linear_371_6376)" stroke-opacity="0.1"/>
<rect x="0.5" y="0.5" width="829" height="134" rx="13.5" stroke="white" stroke-opacity="0.1"/>
<defs>
<radialGradient id="paint0_radial_371_6376" cx="0" cy="0" r="1" gradientUnits="userSpaceOnUse" gradientTransform="translate(9.4458e-07 165.586) rotate(17.7974) scale(413.385 308.037)">
<stop offset="0.100613" stop-color="#A0FFC0" stop-opacity="0"/>
<stop offset="0.515" stop-color="#159D70"/>
<stop offset="1" stop-color="#159D70" stop-opacity="0"/>
</radialGradient>
<radialGradient id="paint1_radial_371_6376" cx="0" cy="0" r="1" gradientUnits="userSpaceOnUse" gradientTransform="translate(1136.06 -141.75) rotate(105.756) scale(434.619 1675.73)">
<stop stop-color="#A0FFC0" stop-opacity="0"/>
<stop offset="0.5" stop-color="#A0FFC0"/>
<stop offset="1" stop-color="#A0FFC0" stop-opacity="0"/>
</radialGradient>
<linearGradient id="paint2_linear_371_6376" x1="415" y1="0" x2="415" y2="135" gradientUnits="userSpaceOnUse">
<stop stop-color="white" stop-opacity="0.6"/>
<stop offset="0.5" stop-color="white" stop-opacity="0"/>
<stop offset="1" stop-color="white"/>
</linearGradient>
<linearGradient id="paint3_linear_371_6376" x1="415" y1="0" x2="415" y2="135" gradientUnits="userSpaceOnUse">
<stop stop-color="white" stop-opacity="0.6"/>
<stop offset="0.5" stop-color="white" stop-opacity="0"/>
<stop offset="1" stop-color="white"/>
</linearGradient>
<clipPath id="clip0_371_6376">
<rect width="830" height="135" rx="14" fill="white"/>
</clipPath>
</defs>
</svg>
